
<svg version="1.0" xmlns="http://www.w3.org/2000/svg"
 width="1280.000000pt" height="960.000000pt" viewBox="0 0 1280.000000 960.000000"
 preserveAspectRatio="xMidYMid meet">
<metadata>
Created by potrace 1.15, written by Peter Selinger 2001-2017
</metadata>
<g transform="translate(0.000000,960.000000) scale(0.100000,-0.100000)"
fill="#000000" stroke="none">
<path d="M7086 8888 c-3 -13 -7 -81 -9 -153 -3 -84 -10 -145 -21 -173 -24 -67
-163 -316 -221 -396 -29 -40 -72 -111 -96 -156 -67 -128 -328 -400 -383 -400
-15 0 -66 55 -66 70 0 5 -20 40 -44 77 -24 37 -55 91 -69 118 -14 28 -45 73
-69 100 -25 28 -57 74 -73 102 -15 29 -50 79 -76 110 -88 105 -191 265 -236
365 -65 147 -103 219 -112 214 -4 -3 -11 -99 -14 -213 -7 -238 -25 -373 -62
-488 -47 -144 -95 -195 -183 -195 -29 0 -52 -3 -53 -7 0 -5 -2 -57 -4 -118 -6
-135 -22 -181 -82 -234 -61 -54 -134 -71 -209 -47 -59 19 -94 21 -94 5 0 -6
15 -38 34 -72 43 -78 99 -230 121 -327 9 -41 27 -115 40 -165 30 -113 46 -414
23 -432 -67 -53 -325 3 -650 141 -20 9 -39 12 -42 8 -3 -5 27 -44 65 -88 39
-43 92 -110 117 -149 49 -75 128 -253 162 -363 27 -87 104 -282 140 -352 50
-99 99 -235 120 -331 64 -304 86 -372 149 -459 17 -23 31 -48 31 -54 0 -6 -35
-35 -77 -63 -243 -160 -475 -306 -598 -373 -191 -105 -220 -123 -460 -278
-493 -319 -802 -540 -1356 -968 -1201 -928 -1408 -1106 -1498 -1281 -12 -24
-41 -65 -66 -93 -48 -55 -53 -75 -30 -120 22 -42 41 -49 127 -46 110 2 114 8
123 154 4 64 13 131 20 148 21 50 206 235 390 389 182 152 188 156 460 363 99
75 207 159 240 187 128 108 657 514 850 652 185 132 478 336 640 444 285 190
343 225 685 416 69 39 175 98 235 133 145 84 282 149 325 156 l35 6 32 -125
c17 -68 54 -178 81 -244 52 -124 70 -206 92 -427 10 -101 73 -346 114 -443 29
-68 59 -182 75 -281 12 -74 40 -137 60 -137 9 0 19 20 27 57 30 130 150 335
257 439 38 37 77 69 87 72 32 8 78 -21 125 -80 67 -84 78 -109 72 -161 -6 -57
50 -229 123 -375 27 -56 66 -147 85 -202 20 -55 44 -109 55 -119 19 -20 20
-20 58 22 52 57 91 57 170 3 79 -54 171 -145 217 -213 21 -32 40 -58 42 -58 3
0 16 9 30 20 32 25 59 25 98 1 42 -25 218 -236 303 -363 73 -107 130 -168 159
-168 16 0 16 3 -12 80 -31 85 -40 213 -25 391 7 90 14 297 16 460 2 317 9 369
49 395 23 15 30 14 112 -11 49 -15 126 -43 173 -63 47 -19 134 -55 194 -78 60
-24 114 -48 120 -53 6 -5 56 -28 111 -51 55 -24 118 -55 140 -69 22 -15 54
-33 70 -40 49 -21 257 -153 294 -186 18 -16 55 -52 82 -80 68 -69 75 -53 33
69 -20 60 -34 118 -34 148 0 46 40 181 74 245 17 35 94 86 152 102 95 26 247
5 354 -49 93 -47 104 -41 75 41 -23 64 -2 128 67 199 96 100 242 150 439 150
89 0 119 3 128 14 24 29 -6 57 -149 139 -60 34 -126 92 -161 140 -31 43 -39
109 -20 175 12 39 0 49 -101 81 -37 12 -95 41 -130 64 -70 47 -195 170 -209
205 -22 58 -3 125 55 190 20 22 36 42 36 45 0 2 -55 7 -122 10 -83 3 -181 16
-303 40 -99 20 -206 41 -237 47 -32 6 -77 19 -100 30 -24 11 -64 20 -89 20
-89 0 -139 37 -126 93 8 30 43 46 131 57 39 5 103 14 141 20 248 38 263 39
410 34 136 -6 156 -4 210 15 33 11 103 30 155 40 52 11 124 28 160 37 98 26
281 24 388 -5 46 -12 87 -19 93 -15 6 3 -18 36 -54 73 -82 84 -109 137 -115
223 -8 115 32 202 127 272 25 19 59 45 75 57 17 13 52 26 83 30 30 4 58 10 61
14 3 3 -4 25 -17 49 -62 113 32 276 231 399 104 64 101 100 -11 112 -145 16
-198 28 -270 61 -84 39 -130 77 -168 142 -23 39 -25 48 -15 80 17 54 3 60 -73
33 -143 -51 -301 -31 -418 51 -45 32 -119 159 -147 256 -17 55 0 156 41 243
48 102 52 103 -241 -54 -108 -57 -276 -123 -388 -152 -35 -9 -107 -32 -160
-51 -87 -32 -112 -36 -247 -44 -82 -4 -163 -14 -180 -20 -46 -19 -117 -29
-142 -19 -33 12 -28 44 13 87 20 20 45 53 56 72 83 150 117 192 241 305 55 49
113 110 130 135 29 43 54 71 163 187 27 29 76 67 108 85 69 38 79 55 39 64
-108 24 -186 84 -218 169 -17 42 -17 48 -1 88 15 41 134 212 198 285 15 18 28
39 28 48 0 15 -6 18 -51 28 -24 5 -27 12 -33 64 -8 69 21 175 84 307 88 185
98 225 60 225 -12 0 -67 -28 -123 -61 -56 -34 -140 -77 -187 -97 -83 -35 -88
-36 -215 -37 -122 0 -134 2 -190 28 -69 32 -109 67 -124 108 -6 16 -16 43 -22
59 -6 17 -17 30 -24 30 -7 0 -35 -38 -61 -85 -61 -109 -121 -176 -232 -259
-105 -78 -151 -96 -243 -96 -92 0 -163 16 -229 52 -102 56 -147 112 -245 308
-30 61 -60 110 -65 110 -5 0 -12 -10 -14 -22z"/>
</g>
</svg>
